<svg width="24" height="24" viewBox="0 0 24 24" fill="none" xmlns="http://www.w3.org/2000/svg">
<g clip-path="url(#clip0_1_719)">
<rect x="5.71875" y="7.07812" width="12.9375" height="10.4062" fill="white"/>
<path d="M22.6875 10.6365L22.0305 9.9795C21.7605 9.7095 21.5977 9.1035 21.6968 8.7345L21.9368 7.83675C22.0702 7.341 22.0012 6.82125 21.7425 6.375C21.4845 5.928 21.0697 5.60925 20.574 5.4765L19.6755 5.23575C19.3065 5.13675 18.8632 4.6935 18.7635 4.3245L18.5235 3.42675C18.255 2.4225 17.1705 1.79025 16.1625 2.06325L15.2655 2.30325C14.9198 2.39475 14.2778 2.22675 14.0205 1.97025L13.3627 1.31175C12.6375 0.587999 11.364 0.587249 10.6372 1.3125L9.9795 1.97025C9.72225 2.229 9.078 2.39625 8.7345 2.304L7.83675 2.06325C6.828 1.79475 5.74425 2.424 5.475 3.42675L5.23575 4.32375C5.13675 4.6935 4.69275 5.1375 4.32375 5.23575L3.42675 5.47575C2.93025 5.60925 2.51475 5.92875 2.25675 6.37575C1.99875 6.82275 1.9305 7.341 2.064 7.83525L2.304 8.73375C2.403 9.1035 2.24175 9.70875 1.97025 9.97875L1.314 10.6357C0.95025 11.0002 0.75 11.484 0.75 12C0.75 12.516 0.9495 12.9997 1.3125 13.3627L1.96875 14.019C2.23875 14.2897 2.4015 14.8965 2.30325 15.2655L2.06325 16.1632C1.9305 16.659 1.9995 17.1787 2.2575 17.625C2.5155 18.072 2.931 18.3907 3.42675 18.5228L4.323 18.7627C4.6935 18.8625 5.13675 19.3065 5.2365 19.6747L5.4765 20.5725C5.745 21.5745 6.82875 22.2037 7.8375 21.9352L8.7345 21.6952C9.081 21.603 9.72225 21.771 9.98025 22.0282L10.6372 22.6852C11.0002 23.0497 11.4847 23.25 12.0007 23.25C12.5167 23.25 13.0005 23.0497 13.3635 22.6868L14.022 22.0297C14.2792 21.771 14.9123 21.6015 15.2677 21.6968L16.1632 21.936C16.3253 21.9795 16.4925 22.002 16.6597 22.002H16.6605C17.532 22.002 18.2992 21.4147 18.5243 20.5725L18.7635 19.677C18.8632 19.3072 19.3073 18.8632 19.6763 18.7642L20.574 18.5243C21.6007 18.2475 22.212 17.1877 21.9352 16.164L21.696 15.2662C21.597 14.8965 21.759 14.2905 22.029 14.0205L22.6868 13.3635C23.439 12.6097 23.4382 11.3872 22.6875 10.6365ZM17.0303 9.53025L11.0302 15.5303C10.884 15.6765 10.692 15.75 10.5 15.75C10.308 15.75 10.116 15.6765 9.96975 15.5303L6.96975 12.5303C6.6765 12.237 6.6765 11.763 6.96975 11.4697C7.263 11.1765 7.737 11.1765 8.03025 11.4697L10.5 13.9395L15.9697 8.46975C16.263 8.1765 16.737 8.1765 17.0303 8.46975C17.3235 8.763 17.3235 9.237 17.0303 9.53025Z" fill="#2983FF"/>
</g>
<defs>
<clipPath id="clip0_1_719">
<rect width="24" height="24" fill="white"/>
</clipPath>
</defs>
</svg>
