<svg width="25" height="24" viewBox="0 0 25 24" fill="none" xmlns="http://www.w3.org/2000/svg">
<path d="M16.3256 3.75264L16.3133 3.75227C15.0349 3.71376 13.7902 4.1662 12.8349 5.01668L12.3362 5.46067L11.8375 5.01668C10.8822 4.1662 9.6375 3.71376 8.35904 3.75227L8.34647 3.75265L8.3339 3.75261C6.81863 3.74743 5.38072 4.42125 4.41511 5.58899C3.59997 6.57798 2.66628 8.44489 3.28315 11.6292L16.3256 3.75264ZM16.3256 3.75264L16.338 3.75261M16.3256 3.75264L16.338 3.75261M16.338 3.75261C17.8514 3.74849 19.2873 4.42199 20.2517 5.58833C21.0682 6.58346 21.9999 8.44605 21.3832 11.6294L21.3832 11.6296C20.9087 14.0823 18.8466 16.4169 16.7167 18.2201C14.6182 19.9968 12.6036 21.1338 12.4563 21.2155L12.4549 21.2163C12.3792 21.2584 12.2871 21.2584 12.2115 21.2163L12.2081 21.2144M16.338 3.75261L12.2081 21.2144M12.2081 21.2144C12.0646 21.1353 10.0507 19.9992 7.95188 18.2224M12.2081 21.2144L7.95188 18.2224M7.95188 18.2224C5.8221 16.4193 3.75916 14.0839 3.28317 11.6294L7.95188 18.2224Z" stroke="#9DB2CE" stroke-width="1.5"/>
</svg>
