<svg width="90" height="42" viewBox="0 0 90 42" fill="none" xmlns="http://www.w3.org/2000/svg">
<g filter="url(#filter0_b_1_509)">
<rect x="6.10352e-05" width="90" height="41.1945" rx="10" fill="white" fill-opacity="0.1"/>
</g>
<path d="M36.3848 20.3662H35.3348V18.7312H36.3848C36.7848 18.7412 37.0698 18.6212 37.2398 18.3712C37.4098 18.1112 37.4948 17.8712 37.4948 17.6512C37.4948 17.4112 37.4248 17.1812 37.2848 16.9612C37.1548 16.7412 36.9348 16.6012 36.6248 16.5412C35.9948 16.4612 35.4898 16.6612 35.1098 17.1412L33.6698 16.1962C33.9498 15.7262 34.3548 15.3562 34.8848 15.0862C35.4248 14.8162 36.0098 14.7012 36.6398 14.7412C37.4698 14.7812 38.1498 15.0662 38.6798 15.5962C39.2098 16.1162 39.4748 16.7462 39.4748 17.4862C39.4748 17.8762 39.3648 18.2412 39.1448 18.5812C38.9248 18.9212 38.6298 19.1962 38.2598 19.4062C38.7698 19.5962 39.1798 19.9562 39.4898 20.4862C39.8098 21.0162 39.9448 21.5462 39.8948 22.0762C39.8048 22.9562 39.3948 23.6612 38.6648 24.1912C37.9348 24.7112 37.0848 24.9362 36.1148 24.8662C35.4448 24.8262 34.8348 24.6162 34.2848 24.2362C33.7448 23.8562 33.3398 23.3762 33.0698 22.7962C33.1198 22.7762 33.3848 22.6462 33.8648 22.4062C34.3548 22.1562 34.6248 22.0162 34.6748 21.9862C34.8248 22.2962 35.0448 22.5562 35.3348 22.7662C35.6348 22.9762 35.9448 23.0812 36.2648 23.0812C36.7348 23.0812 37.1248 22.9462 37.4348 22.6762C37.7548 22.3962 37.9148 22.0462 37.9148 21.6262C37.9148 21.5362 37.8948 21.4312 37.8548 21.3112C37.8148 21.1912 37.7448 21.0512 37.6448 20.8912C37.5548 20.7312 37.3998 20.6012 37.1798 20.5012C36.9598 20.4012 36.6948 20.3562 36.3848 20.3662ZM52.404 19.3612C51.974 19.3612 51.629 19.5062 51.369 19.7962C51.109 20.0762 50.979 20.4762 50.979 20.9962V24.7312H49.149V20.8762C49.139 20.4062 49.014 20.0362 48.774 19.7662C48.534 19.4962 48.229 19.3612 47.859 19.3612C47.439 19.3612 47.089 19.4962 46.809 19.7662C46.529 20.0262 46.389 20.4362 46.389 20.9962V24.7312H44.559V17.7262H46.389V18.7612C46.569 18.3712 46.849 18.0812 47.229 17.8912C47.619 17.6912 48.009 17.5912 48.399 17.5912C49.519 17.6512 50.264 18.0862 50.634 18.8962C51.134 18.0162 51.869 17.5762 52.839 17.5762C53.699 17.5762 54.364 17.8462 54.834 18.3862C55.304 18.9262 55.539 19.7062 55.539 20.7262V24.7312H53.724V20.9212C53.724 20.4312 53.599 20.0512 53.349 19.7812C53.109 19.5012 52.794 19.3612 52.404 19.3612ZM58.8878 17.7262V24.7312H57.0728V17.7262H58.8878ZM57.1478 15.8062C56.9178 15.5862 56.8028 15.3212 56.8028 15.0112C56.8028 14.7012 56.9178 14.4412 57.1478 14.2312C57.3878 14.0212 57.6678 13.9162 57.9878 13.9162C58.3078 13.9162 58.5778 14.0212 58.7978 14.2312C59.0278 14.4412 59.1428 14.7012 59.1428 15.0112C59.1428 15.3212 59.0278 15.5862 58.7978 15.8062C58.5778 16.0162 58.3078 16.1212 57.9878 16.1212C57.6578 16.1212 57.3778 16.0162 57.1478 15.8062ZM60.5047 24.7312V13.9162H62.3347V24.7312H60.5047ZM70.7012 21.2062C70.7012 21.4062 70.6912 21.6162 70.6712 21.8362H65.3312C65.3912 22.2962 65.5962 22.6612 65.9462 22.9312C66.3062 23.2012 66.7462 23.3362 67.2662 23.3362C67.6362 23.3362 67.9812 23.2612 68.3012 23.1112C68.6212 22.9512 68.8612 22.7262 69.0212 22.4362C69.2412 22.5562 69.7062 22.8062 70.4162 23.1862C70.1162 23.7562 69.6712 24.1812 69.0812 24.4612C68.4912 24.7412 67.8462 24.8812 67.1462 24.8812C66.1262 24.8812 65.2662 24.5412 64.5662 23.8612C63.8662 23.1712 63.5162 22.2862 63.5162 21.2062C63.5162 20.1262 63.8662 19.2512 64.5662 18.5812C65.2662 17.9112 66.1262 17.5762 67.1462 17.5762C68.1662 17.5762 69.0112 17.9112 69.6812 18.5812C70.3612 19.2512 70.7012 20.1262 70.7012 21.2062ZM65.3162 20.5912H68.9162C68.8462 20.1212 68.6512 19.7562 68.3312 19.4962C68.0112 19.2362 67.6212 19.1062 67.1612 19.1062C66.6712 19.1062 66.2562 19.2412 65.9162 19.5112C65.5862 19.7712 65.3862 20.1312 65.3162 20.5912ZM73.4872 21.8062C73.0572 21.6862 72.7022 21.5462 72.4222 21.3862C72.1422 21.2262 71.9372 21.0462 71.8072 20.8462C71.6872 20.6462 71.6072 20.4612 71.5672 20.2912C71.5272 20.1112 71.5072 19.9012 71.5072 19.6612C71.5072 19.1012 71.7622 18.6162 72.2722 18.2062C72.7822 17.7862 73.3872 17.5762 74.0872 17.5762C74.8272 17.5762 75.4572 17.7562 75.9772 18.1162C76.5072 18.4762 76.7872 19.0312 76.8172 19.7812H75.0772C75.0672 19.5412 74.9672 19.3612 74.7772 19.2412C74.5872 19.1212 74.3722 19.0612 74.1322 19.0612C73.5422 19.0612 73.2472 19.2912 73.2472 19.7512C73.2472 20.0112 73.4922 20.2062 73.9822 20.3362L75.1522 20.6212C75.5322 20.7212 75.8522 20.8612 76.1122 21.0412C76.3722 21.2212 76.5572 21.4212 76.6672 21.6412C76.7872 21.8512 76.8672 22.0412 76.9072 22.2112C76.9572 22.3812 76.9822 22.5512 76.9822 22.7212C76.9822 23.4012 76.6972 23.9312 76.1272 24.3112C75.5672 24.6912 74.8972 24.8812 74.1172 24.8812C73.3772 24.8812 72.7222 24.6712 72.1522 24.2512C71.5922 23.8212 71.3072 23.2462 71.2972 22.5262H73.0072C73.0272 22.7762 73.1622 22.9912 73.4122 23.1712C73.6722 23.3412 73.9672 23.4212 74.2972 23.4112C74.5572 23.4012 74.7722 23.3312 74.9422 23.2012C75.1222 23.0712 75.2122 22.9062 75.2122 22.7062C75.2222 22.5362 75.1622 22.4012 75.0322 22.3012C74.9122 22.1912 74.7172 22.1062 74.4472 22.0462L73.4872 21.8062Z" fill="white"/>
<path fill-rule="evenodd" clip-rule="evenodd" d="M23.0834 14.881C23.8751 15.7172 19.9167 27.4242 18.3334 27.4242C16.7501 27.4242 16.7501 22.4069 16.7501 22.4069C16.7501 22.4069 12.0001 22.4069 12.0001 20.7345C12.0001 19.062 22.2917 14.0447 23.0834 14.881Z" stroke="white" stroke-width="2" stroke-linecap="round" stroke-linejoin="round"/>
<defs>
<filter id="filter0_b_1_509" x="-9.99994" y="-10" width="110" height="61.1945" filterUnits="userSpaceOnUse" color-interpolation-filters="sRGB">
<feFlood flood-opacity="0" result="BackgroundImageFix"/>
<feGaussianBlur in="BackgroundImageFix" stdDeviation="5"/>
<feComposite in2="SourceAlpha" operator="in" result="effect1_backgroundBlur_1_509"/>
<feBlend mode="normal" in="SourceGraphic" in2="effect1_backgroundBlur_1_509" result="shape"/>
</filter>
</defs>
</svg>
