<svg width="20" height="20" viewBox="0 0 20 20" fill="none" xmlns="http://www.w3.org/2000/svg">
<path d="M18.145 1.85489C18.0526 1.76219 17.9341 1.70005 17.8053 1.67687C17.6765 1.6537 17.5437 1.67059 17.4248 1.72528L2.04079 8.77629C1.91192 8.83529 1.80624 8.93534 1.74028 9.06078C1.67432 9.18623 1.65179 9.32999 1.67622 9.4696C1.70065 9.60921 1.77066 9.73678 1.8753 9.83237C1.97995 9.92796 2.11332 9.98618 2.25456 9.99791L9.40601 10.594L10.0021 17.7455C10.0139 17.8867 10.0721 18.0201 10.1677 18.1248C10.2633 18.2294 10.3908 18.2994 10.5305 18.3238C10.6701 18.3483 10.8138 18.3257 10.9393 18.2598C11.0647 18.1938 11.1648 18.0881 11.2238 17.9593L18.2748 2.57525C18.3292 2.45627 18.3459 2.3235 18.3227 2.19474C18.2995 2.06598 18.2375 1.94739 18.145 1.85489ZM11.0767 15.2029L10.6388 9.9467C10.6262 9.79559 10.5605 9.65383 10.4533 9.54661C10.346 9.43939 10.2043 9.37365 10.0532 9.36108L4.79696 8.92321L16.39 3.60983L11.0767 15.2029Z" fill="#A2A5B1"/>
</svg>
