<svg width="48" height="48" viewBox="0 0 48 48" fill="none" xmlns="http://www.w3.org/2000/svg">
<rect x="0.5" y="0.5" width="47" height="47" rx="23.5" stroke="#EDEDED"/>
<path fill-rule="evenodd" clip-rule="evenodd" d="M30 24C32.2091 24 34 22.2091 34 20C34 17.7909 32.2091 16 30 16C28.1362 16 26.5701 17.2748 26.126 19H15C14.4477 19 14 19.4477 14 20C14 20.5523 14.4477 21 15 21H26.126C26.5701 22.7252 28.1362 24 30 24ZM28 20C28 21.1046 28.8954 22 30 22C31.1046 22 32 21.1046 32 20C32 18.8954 31.1046 18 30 18C28.8954 18 28 18.8954 28 20ZM14 28C14 25.7909 15.7909 24 18 24C19.8638 24 21.4299 25.2748 21.874 27H33C33.5523 27 34 27.4477 34 28C34 28.5523 33.5523 29 33 29H21.874C21.4299 30.7252 19.8638 32 18 32C15.7909 32 14 30.2091 14 28ZM20 28C20 26.8954 19.1046 26 18 26C16.8954 26 16 26.8954 16 28C16 29.1046 16.8954 30 18 30C19.1046 30 20 29.1046 20 28Z" fill="#202226"/>
</svg>
