<svg width="24" height="24" viewBox="0 0 24 24" fill="none" xmlns="http://www.w3.org/2000/svg">
<path d="M18.6881 8.12627L9.18221 3.36149C2.78171 0.169139 0.166175 2.78467 3.36642 9.17727L4.78086 11.9982L3.36639 14.8192C0.166145 21.2118 2.78956 23.8352 9.18216 20.6349L18.6881 15.8859C22.9472 13.7445 22.9551 10.2598 18.6881 8.12627ZM14.6898 12.6303L8.66854 12.6462C8.43148 12.6462 8.22603 12.5513 8.0759 12.4012C7.92576 12.2511 7.83094 12.0456 7.83094 11.8086C7.83094 11.3502 8.21023 10.971 8.66854 10.971L14.6898 10.9551C15.1481 10.9551 15.5274 11.3344 15.5274 11.7927C15.5274 12.251 15.1481 12.6303 14.6898 12.6303Z" fill="#67A948"/>
</svg>
